<?xml version="1.0" encoding="UTF-8" standalone="no"?>
<svg
   id="Layer_1"
   data-name="Layer 1"
   viewBox="0 0 106.51 122.88"
   version="1.1"
   sodipodi:docname="sack-icon.svg"
   inkscape:version="1.3 (0e150ed6c4, 2023-07-21)"
   inkscape:export-filename="sack-icon.png"
   inkscape:export-xdpi="96"
   inkscape:export-ydpi="96"
   xmlns:inkscape="http://www.inkscape.org/namespaces/inkscape"
   xmlns:sodipodi="http://sodipodi.sourceforge.net/DTD/sodipodi-0.dtd"
   xmlns:xlink="http://www.w3.org/1999/xlink"
   xmlns="http://www.w3.org/2000/svg"
   xmlns:svg="http://www.w3.org/2000/svg">
  <sodipodi:namedview
     id="namedview27"
     pagecolor="#ffffff"
     bordercolor="#000000"
     borderopacity="0.25"
     inkscape:showpageshadow="2"
     inkscape:pageopacity="0.0"
     inkscape:pagecheckerboard="0"
     inkscape:deskcolor="#d1d1d1"
     showgrid="false"
     inkscape:zoom="3.2063803"
     inkscape:cx="43.039187"
     inkscape:cy="75.942333"
     inkscape:window-width="1444"
     inkscape:window-height="749"
     inkscape:window-x="2610"
     inkscape:window-y="118"
     inkscape:window-maximized="0"
     inkscape:current-layer="Layer_1" />
  <defs
     id="defs20">
    <linearGradient
       id="linearGradient2"
       inkscape:collect="always">
      <stop
         style="stop-color:#ffffff;stop-opacity:1;"
         offset="0"
         id="stop2" />
      <stop
         style="stop-color:#ffffff;stop-opacity:0;"
         offset="1"
         id="stop3" />
    </linearGradient>
    <style
       id="style18">.cls-1{fill-rule:evenodd;}</style>
    <radialGradient
       inkscape:collect="always"
       xlink:href="#linearGradient2"
       id="radialGradient3"
       cx="58.351879"
       cy="36.099199"
       fx="58.351879"
       fy="36.099199"
       r="31"
       gradientUnits="userSpaceOnUse"
       gradientTransform="matrix(0.77203744,0,0,0.71398515,8.2051653,40.841974)" />
  </defs>
  <title
     id="title22">sack</title>
  <rect
     style="fill:#000000;fill-opacity:1"
     id="rect2"
     width="106.51"
     height="122.88"
     x="0"
     y="0" />
  <rect
     style="fill:#ffffff;fill-opacity:0.01321281"
     id="rect3"
     width="62"
     height="62"
     x="22.255001"
     y="27.025829"
     inkscape:export-filename="sack-icon.png"
     inkscape:export-xdpi="396.38708"
     inkscape:export-ydpi="396.38708" />
  <rect
     style="fill:url(#radialGradient3);stroke-width:0.742444"
     id="rect1"
     width="47.866322"
     height="44.267078"
     x="29.32184"
     y="44.482727"
     inkscape:export-filename="sack-icon-alpha.png"
     inkscape:export-xdpi="396.38708"
     inkscape:export-ydpi="396.38708" />
  <path
     class="cls-1"
     d="m 55.829754,52.504534 h -0.05124 l -1.830007,-3.205481 h -1.464002 l -2.766963,3.170605 1.903203,-3.072317 c -4.113848,1.20483 -8.967014,6.521935 -10.771396,9.629128 -2.825525,4.87005 -3.469686,5.45978 -4.611607,12.36536 -0.230581,1.39507 0.512401,1.19849 -0.812522,1.50605 -1.423741,0.31705 -2.159401,1.05897 -1.281001,3.10084 1.401783,0.1839 3.180544,-0.18389 4.710427,0 2.605924,0.31706 5.610788,0.81802 8.637612,1.16679 6.873488,0.79265 12.480617,0.0793 19.925067,-1.2302 l 5.072768,0.0602 c 0.530699,-1.66457 0.267177,-2.49209 -1.098007,-3.0311 -1.83,-0.72607 -1.006499,-0.2473 -1.237082,-2.31137 C 69.221708,62.26362 68.065148,62.533123 63.775622,56.762621 61.879739,54.188089 58.724815,49.968013 55.035529,49.37194 Z M 40.717593,68.497069 a 0.8273769,0.7167437 0 1 1 1.643344,0.16804 c -0.07686,0.57071 -0.157381,1.15093 -0.201302,1.66457 a 7.825091,6.7787544 0 0 0 0,1.30629 0.82716113,0.7165568 0 1 1 -1.636021,0.20292 9.0585129,7.8472483 0 0 1 -0.02196,-1.60433 c 0.04392,-0.57705 0.124445,-1.16361 0.20496,-1.73749 z m 23.519194,-1.31263 a 0.82716113,0.7165568 0 1 1 1.628701,-0.2473 17.509465,15.168176 0 0 1 0.168362,2.68867 10.310234,8.9315956 0 0 1 -0.325741,2.3621 0.83427583,0.72272014 0 1 1 -1.566483,-0.49779 9.1500123,7.9265137 0 0 0 0.22692,-1.90236 16.199182,14.0331 0 0 0 -0.1464,-2.40966 z m -13.8458,-22.543006 c -0.629521,-1.610667 -1.200482,-3.234017 -1.676283,-4.892244 1.786083,-1.699445 8.688853,-1.474332 10.668915,-0.02854 l -1.830002,3.804727 c 0.9882,-1.125564 1.321262,-1.585302 1.910523,-2.219423 a 5.5266075,4.7876142 0 0 1 0.699061,0.47242 c 0.523381,0.409007 0.995521,0.865574 1.098001,1.493355 a 1.8300025,1.5853027 0 0 1 -0.494101,1.252389 l -4.230966,4.242271 a 9.018253,7.812372 0 0 1 -1.588441,-0.34877 c 0.237901,-0.485102 0.527039,-1.024106 0.76494,-1.509208 l -1.533542,1.436284 a 5.7352279,4.9683386 0 0 0 -4.084565,0.431203 L 45.815981,44.337049 A 1.4200819,1.230195 0 0 1 45.44998,43.541228 c 0,-1.074836 1.851964,-2.003823 2.821865,-2.35576 l 2.122802,3.465471 z"
     id="path3"
     style="fill:#ffffff;fill-opacity:0.01321281;stroke-width:0.340652"
     inkscape:export-filename="sack-icon.png"
     inkscape:export-xdpi="443.2912"
     inkscape:export-ydpi="443.2912" />
  <path
     class="cls-1"
     d="m 55.829754,52.504534 h -0.05124 l -1.830007,-3.205481 h -1.464002 l -2.766963,3.170605 1.903203,-3.072317 c -4.113848,1.20483 -8.967014,6.521935 -10.771396,9.629128 -2.825525,4.87005 -3.469686,5.45978 -4.611607,12.36536 -0.230581,1.39507 0.512401,1.19849 -0.812522,1.50605 -1.423741,0.31705 -2.159401,1.05897 -1.281001,3.10084 1.401783,0.1839 3.180544,-0.18389 4.710427,0 2.605924,0.31706 5.610788,0.81802 8.637612,1.16679 6.873488,0.79265 12.480617,0.0793 19.925067,-1.2302 l 5.072768,0.0602 c 0.530699,-1.66457 0.267177,-2.49209 -1.098007,-3.0311 -1.83,-0.72607 -1.006499,-0.2473 -1.237082,-2.31137 C 69.221708,62.26362 68.065148,62.533123 63.775622,56.762621 61.879739,54.188089 58.724815,49.968013 55.035529,49.37194 Z M 40.717593,68.497069 a 0.8273769,0.7167437 0 1 1 1.643344,0.16804 c -0.07686,0.57071 -0.157381,1.15093 -0.201302,1.66457 a 7.825091,6.7787544 0 0 0 0,1.30629 0.82716113,0.7165568 0 1 1 -1.636021,0.20292 9.0585129,7.8472483 0 0 1 -0.02196,-1.60433 c 0.04392,-0.57705 0.124445,-1.16361 0.20496,-1.73749 z m 23.519194,-1.31263 a 0.82716113,0.7165568 0 1 1 1.628701,-0.2473 17.509465,15.168176 0 0 1 0.168362,2.68867 10.310234,8.9315956 0 0 1 -0.325741,2.3621 0.83427583,0.72272014 0 1 1 -1.566483,-0.49779 9.1500123,7.9265137 0 0 0 0.22692,-1.90236 16.199182,14.0331 0 0 0 -0.1464,-2.40966 z m -13.8458,-22.543006 c -0.629521,-1.610667 -1.200482,-3.234017 -1.676283,-4.892244 1.786083,-1.699445 8.688853,-1.474332 10.668915,-0.02854 l -1.830002,3.804727 c 0.9882,-1.125564 1.321262,-1.585302 1.910523,-2.219423 a 5.5266075,4.7876142 0 0 1 0.699061,0.47242 c 0.523381,0.409007 0.995521,0.865574 1.098001,1.493355 a 1.8300025,1.5853027 0 0 1 -0.494101,1.252389 l -4.230966,4.242271 a 9.018253,7.812372 0 0 1 -1.588441,-0.34877 c 0.237901,-0.485102 0.527039,-1.024106 0.76494,-1.509208 l -1.533542,1.436284 a 5.7352279,4.9683386 0 0 0 -4.084565,0.431203 L 45.815981,44.337049 A 1.4200819,1.230195 0 0 1 45.44998,43.541228 c 0,-1.074836 1.851964,-2.003823 2.821865,-2.35576 l 2.122802,3.465471 z"
     id="path1"
     style="fill:#ffffff;fill-opacity:1;stroke-width:0.340652"
     inkscape:export-filename="sack-icon.png"
     inkscape:export-xdpi="443.2912"
     inkscape:export-ydpi="443.2912" />
</svg>
