<?xml version="1.0" encoding="UTF-8" standalone="no"?>
<svg
   id="Layer_1"
   data-name="Layer 1"
   viewBox="0 0 106.51 122.88"
   version="1.1"
   sodipodi:docname="sack-icon.svg"
   inkscape:version="1.2.2 (1:1.2.2+202305151915+b0a8486541)"
   inkscape:export-filename="sack-icon.png"
   inkscape:export-xdpi="96"
   inkscape:export-ydpi="96"
   xmlns:inkscape="http://www.inkscape.org/namespaces/inkscape"
   xmlns:sodipodi="http://sodipodi.sourceforge.net/DTD/sodipodi-0.dtd"
   xmlns="http://www.w3.org/2000/svg"
   xmlns:svg="http://www.w3.org/2000/svg">
  <sodipodi:namedview
     id="namedview27"
     pagecolor="#ffffff"
     bordercolor="#000000"
     borderopacity="0.25"
     inkscape:showpageshadow="2"
     inkscape:pageopacity="0.0"
     inkscape:pagecheckerboard="0"
     inkscape:deskcolor="#d1d1d1"
     showgrid="false"
     inkscape:zoom="4.5345065"
     inkscape:cx="3.969561"
     inkscape:cy="70.239176"
     inkscape:window-width="2506"
     inkscape:window-height="1016"
     inkscape:window-x="0"
     inkscape:window-y="0"
     inkscape:window-maximized="1"
     inkscape:current-layer="Layer_1" />
  <defs
     id="defs20">
    <style
       id="style18">.cls-1{fill-rule:evenodd;}</style>
  </defs>
  <title
     id="title22">sack</title>
  <path
     class="cls-1"
     d="m 54.175625,61.341634 h -0.08185 l -2.923327,-5.120578 h -2.338661 l -4.420069,5.064865 3.040259,-4.907854 c -6.57164,1.924648 -14.324301,10.418426 -17.206701,15.381993 -4.513616,7.779632 -5.542627,8.721696 -7.366783,19.752972 -0.368339,2.228541 0.818532,1.914519 -1.297957,2.405811 -2.274348,0.506486 -3.449525,1.691665 -2.046328,4.953437 2.239268,0.293762 5.080741,-0.293762 7.524642,0 4.162817,0.506487 8.962919,1.30674 13.798101,1.86387 10.980014,1.26622 19.937086,0.12662 31.829178,-1.965167 l 8.103461,0.09623 C 81.637353,96.208161 81.216391,94.886232 79.035587,94.025205 76.112264,92.865351 77.427761,93.630146 77.059419,90.332919 75.568526,76.931286 73.720987,77.3618 66.868709,68.143747 63.840143,64.031077 58.800328,57.289743 52.906902,56.337548 Z M 30.034796,86.88881 a 1.3216865,1.1449564 0 1 1 2.625148,0.268437 c -0.12278,0.911676 -0.251407,1.838546 -0.321567,2.659056 a 12.500144,10.82868 0 0 0 0,2.086724 1.3213435,1.1446593 0 1 1 -2.613453,0.324151 14.470466,12.535539 0 0 1 -0.03508,-2.562821 c 0.07016,-0.921807 0.198785,-1.858807 0.327412,-2.775547 z m 37.570591,-2.096854 a 1.3213435,1.1446593 0 1 1 2.60176,-0.39506 27.970388,24.230311 0 0 1 0.268949,4.295005 16.470021,14.267723 0 0 1 -0.520354,3.773326 1.332707,1.1545033 0 1 1 -2.502368,-0.795184 14.616632,12.662161 0 0 0 0.362493,-3.03892 25.877285,22.417089 0 0 0 -0.233866,-3.849297 z M 45.487499,48.780771 c -1.005624,-2.572951 -1.917702,-5.166162 -2.677767,-7.815086 2.853167,-2.714767 13.879955,-2.355162 17.042994,-0.04558 l -2.923327,6.077837 c 1.578596,-1.798026 2.110641,-2.532432 3.051953,-3.545404 a 8.8284455,7.6479451 0 0 1 1.116711,0.754664 c 0.836071,0.653368 1.590289,1.382708 1.753995,2.385551 a 2.9233264,2.5324322 0 0 1 -0.789298,2.000622 l -6.75873,6.776788 A 14.406153,12.479826 0 0 1 52.766582,54.813024 C 53.146615,54.0381 53.6085,53.177073 53.988533,52.402149 l -2.449748,2.294383 a 9.1617049,7.9366424 0 0 0 -6.524864,0.688822 l -6.834737,-7.09081 a 2.2685013,1.9651674 0 0 1 -0.584666,-1.271281 c 0,-1.716989 2.958407,-3.200994 4.507769,-3.763194 l 3.391059,5.535896 z"
     id="path24"
     style="fill:#f00010;fill-opacity:1;stroke-width:0.544174"
     inkscape:export-filename="sack-icon.png"
     inkscape:export-xdpi="394.66714"
     inkscape:export-ydpi="394.66714" />
</svg>
